<?xml version="1.0" encoding="UTF-8"?>
<svg xmlns="http://www.w3.org/2000/svg" xmlns:xlink="http://www.w3.org/1999/xlink" version="1.1" id="圖層_1" x="0px" y="0px" viewBox="0 0 267.4 43.5" style="enable-background:new 0 0 267.4 43.5;" xml:space="preserve"> <style type="text/css"> .st0{fill:#040000;} .st1{fill:#FFFFFF;} .st2{fill:#FFFFFF;stroke:#FFFFFF;stroke-width:0.2;stroke-miterlimit:10;} .st3{fill:url(#Path_6023_1_);} .st4{fill:url(#Path_6024_1_);} .st5{fill:url(#Path_6025_1_);} .st6{fill:url(#Path_6026_1_);} .st7{opacity:0.2;fill:#040000;enable-background:new ;} .st8{opacity:0.12;fill:#040000;enable-background:new ;} .st9{opacity:0.25;fill:#FFFFFF;enable-background:new ;} </style> <g id="Download_on_the_App_Store_Badge_US-UK_RGB_blk_092917" transform="translate(512 1080)"> <g id="Group_9583" transform="translate(0 0)"> <g id="Group_9581"> <path id="Path_5992" class="st0" d="M-358.7-1039c-0.3,0-0.6,0-0.9,0c-0.6,0-1.3-0.1-1.9-0.2s-1.1-0.3-1.7-0.6 c-0.5-0.3-1-0.6-1.4-1s-0.8-0.9-1-1.4c-0.3-0.5-0.5-1.1-0.5-1.7c-0.1-0.6-0.2-1.3-0.2-1.9c0-0.2,0-0.9,0-0.9v-23.3 c0,0,0-0.7,0-0.9c0-0.6,0.1-1.3,0.2-1.9s0.3-1.1,0.5-1.7c0.3-0.5,0.6-1,1-1.4s0.9-0.8,1.4-1c0.5-0.3,1.1-0.4,1.7-0.5 s1.3-0.2,1.9-0.2h0.9h103.5h0.9c0.6,0,1.3,0.1,1.9,0.2c0.6,0.1,1.2,0.3,1.7,0.6c1,0.5,1.9,1.4,2.4,2.4c0.3,0.5,0.4,1.1,0.5,1.7 s0.2,1.3,0.2,1.9c0,0.3,0,0.6,0,0.9c0,0.4,0,0.7,0,1.1v21.1c0,0.4,0,0.7,0,1.1c0,0.3,0,0.6,0,0.9c0,0.6-0.1,1.2-0.2,1.9 c-0.1,0.6-0.3,1.2-0.5,1.7c-0.3,0.5-0.6,1-1,1.4s-0.9,0.8-1.4,1c-0.5,0.3-1.1,0.5-1.7,0.6c-0.6,0.1-1.3,0.2-1.9,0.2 c-0.3,0-0.6,0-0.9,0h-1.1L-358.7-1039z"></path> </g> <g id="_Group_" transform="translate(12.043 10.532)"> <g id="_Group_2"> <g id="_Group_3"> <path id="_Path_" class="st1" d="M-354.3-1068.5c0-1.7,0.9-3.3,2.4-4.2c-0.9-1.3-2.4-2.1-4-2.2c-1.7-0.2-3.3,1-4.2,1 c-0.9,0-2.2-1-3.6-1c-1.9,0.1-3.6,1.1-4.5,2.7c-1.9,3.4-0.5,8.3,1.4,11.1c0.9,1.3,2,2.8,3.5,2.8c1.4-0.1,1.9-0.9,3.6-0.9 s2.2,0.9,3.6,0.9c1.5,0,2.4-1.3,3.3-2.7c0.7-1,1.2-2,1.5-3.1C-353.2-1064.8-354.3-1066.6-354.3-1068.5z"></path> <path id="_Path_2" class="st1" d="M-357.1-1076.7c0.8-1,1.2-2.2,1.1-3.5c-1.2,0.1-2.4,0.7-3.2,1.7c-0.8,0.9-1.2,2.1-1.2,3.4 C-359.1-1075.1-357.9-1075.7-357.1-1076.7z"></path> </g> </g> <g id="Group_9582" transform="translate(29.535 11.051)"> <path id="Path_5993" class="st1" d="M-366.2-1072.7h-4.8l-1.1,3.4h-2l4.5-12.5h2.1l4.5,12.5h-2.1L-366.2-1072.7z M-370.5-1074.2 h3.8l-1.9-5.5h-0.1L-370.5-1074.2z"></path> <path id="Path_5994" class="st1" d="M-353.2-1073.9c0,2.8-1.5,4.7-3.8,4.7c-1.2,0.1-2.3-0.6-2.9-1.6l0,0v4.5h-1.9v-12.1h1.8v1.5 l0,0c0.6-1,1.7-1.7,2.9-1.6C-354.8-1078.5-353.2-1076.7-353.2-1073.9z M-355.2-1073.9c0-1.8-1-3.1-2.4-3.1s-2.4,1.2-2.4,3.1 c0,1.8,1,3.1,2.4,3.1C-356.1-1070.8-355.2-1072-355.2-1073.9z"></path> <path id="Path_5995" class="st1" d="M-343.2-1073.9c0,2.8-1.5,4.7-3.8,4.7c-1.2,0.1-2.3-0.6-2.9-1.6l0,0v4.5h-1.9v-12.1h1.8v1.5 l0,0c0.6-1,1.7-1.7,2.9-1.6C-344.7-1078.5-343.2-1076.7-343.2-1073.9z M-345.1-1073.9c0-1.8-1-3.1-2.4-3.1s-2.4,1.2-2.4,3.1 c0,1.8,1,3.1,2.4,3.1S-345.1-1072-345.1-1073.9z"></path> <path id="Path_5996" class="st1" d="M-336.6-1072.8c0.1,1.2,1.3,2.1,3,2.1c1.6,0,2.7-0.8,2.7-1.9c0-1-0.7-1.6-2.3-2l-1.6-0.4 c-2.3-0.6-3.4-1.6-3.4-3.4c0-2.2,1.9-3.6,4.6-3.6c2.6,0,4.5,1.5,4.5,3.6h-1.9c-0.1-1.3-1.1-2-2.7-2c-1.5,0-2.5,0.8-2.5,1.9 c0,0.9,0.7,1.4,2.3,1.8l1.4,0.3c2.6,0.6,3.6,1.6,3.6,3.5c0,2.3-1.9,3.8-4.8,3.8c-2.8,0-4.6-1.4-4.8-3.7L-336.6-1072.8z"></path> <path id="Path_5997" class="st1" d="M-324.9-1080.6v2.2h1.7v1.5h-1.7v5c0,0.8,0.3,1.1,1.1,1.1c0.2,0,0.4,0,0.6,0v1.5 c-0.3,0.1-0.7,0.1-1,0.1c-1.8,0-2.6-0.7-2.6-2.5v-5.2h-1.3v-1.5h1.3v-2.2H-324.9z"></path> <path id="Path_5998" class="st1" d="M-322.1-1073.9c0-2.9,1.7-4.7,4.3-4.7c2.6,0,4.3,1.8,4.3,4.7c0,2.9-1.7,4.7-4.3,4.7 C-320.5-1069.2-322.1-1071-322.1-1073.9z M-315.4-1073.9c0-2-0.9-3.1-2.4-3.1s-2.4,1.2-2.4,3.1c0,2,0.9,3.1,2.4,3.1 C-316.3-1070.7-315.4-1071.9-315.4-1073.9z"></path> <path id="Path_5999" class="st1" d="M-311.9-1078.4h1.8v1.6l0,0c0.2-1,1.2-1.7,2.2-1.6c0.2,0,0.4,0,0.6,0.1v1.8 c-0.3-0.1-0.6-0.1-0.8-0.1c-1,0-1.9,0.8-2,1.8c0,0.1,0,0.2,0,0.3v5.4h-1.9L-311.9-1078.4L-311.9-1078.4z"></path> <path id="Path_6000" class="st1" d="M-298.6-1072c-0.3,1.7-1.9,2.8-3.9,2.8c-2.7,0-4.3-1.8-4.3-4.6c0-2.9,1.7-4.7,4.2-4.7 s4.1,1.7,4.1,4.5v0.6h-6.4v0.1c-0.1,1.3,0.8,2.5,2.2,2.6c0.1,0,0.2,0,0.3,0c0.9,0.1,1.8-0.4,2.1-1.3H-298.6z M-305-1074.7h4.6 c0.1-1.2-0.9-2.2-2.1-2.3c-0.1,0-0.1,0-0.2,0C-303.9-1077-305-1076-305-1074.7L-305-1074.7L-305-1074.7z"></path> </g> </g> </g> <g id="_Group_4" transform="translate(43.079 10.189)"> <g id="Group_9584"> <path id="Path_6001" class="st1" d="M-372.2-1079.8c1.5-0.1,2.7,1,2.8,2.5c0,0.2,0,0.4,0,0.5c0,1.9-1,3-2.8,3h-2.2v-6H-372.2z M-373.4-1074.7h1.1c1,0.1,1.9-0.7,2-1.8c0-0.1,0-0.3,0-0.4c0.1-1-0.6-2-1.6-2.1c-0.1,0-0.2,0-0.4,0h-1.1V-1074.7z"></path> <path id="Path_6002" class="st1" d="M-368.3-1076.1c-0.1-1.2,0.8-2.2,1.9-2.3c1.2-0.1,2.2,0.8,2.3,1.9c0,0.1,0,0.3,0,0.4 c0.1,1.2-0.7,2.2-1.9,2.3c-1.2,0.1-2.2-0.7-2.3-1.9C-368.3-1075.8-368.3-1076-368.3-1076.1z M-365-1076.1c0-1-0.4-1.6-1.2-1.6 s-1.2,0.6-1.2,1.6s0.4,1.6,1.2,1.6S-365-1075.1-365-1076.1z"></path> <path id="Path_6003" class="st1" d="M-358.4-1073.8h-0.9l-0.9-3.3h-0.1l-0.9,3.3h-0.9l-1.3-4.5h0.9l0.8,3.5h0.1l0.9-3.5h0.9 l0.9,3.5h0.1l0.8-3.5h0.9L-358.4-1073.8z"></path> <path id="Path_6004" class="st1" d="M-356.1-1078.4h0.9v0.7h0.1c0.2-0.5,0.8-0.9,1.4-0.8c0.8-0.1,1.5,0.5,1.6,1.4 c0,0.1,0,0.2,0,0.3v2.9h-0.9v-2.7c0-0.7-0.3-1.1-1-1.1c-0.6,0-1.1,0.4-1.1,1c0,0.1,0,0.1,0,0.2v2.7h-0.9v-4.6H-356.1z"></path> <path id="Path_6005" class="st1" d="M-350.8-1080.1h0.9v6.3h-0.9V-1080.1z"></path> <path id="Path_6006" class="st1" d="M-348.7-1076.1c-0.1-1.2,0.8-2.2,1.9-2.3c1.2-0.1,2.2,0.8,2.3,1.9c0,0.1,0,0.3,0,0.4 c0.1,1.2-0.8,2.2-1.9,2.3s-2.2-0.8-2.3-1.9C-348.7-1075.8-348.7-1076-348.7-1076.1z M-345.3-1076.1c0-1-0.4-1.6-1.2-1.6 s-1.2,0.6-1.2,1.6s0.4,1.6,1.2,1.6C-345.7-1074.5-345.3-1075.1-345.3-1076.1z"></path> <path id="Path_6007" class="st1" d="M-343.4-1075.1c0-0.8,0.6-1.3,1.7-1.4l1.2-0.1v-0.4c0-0.5-0.3-0.8-0.9-0.8 c-0.5,0-0.8,0.2-0.9,0.5h-0.9c0.1-0.8,0.8-1.3,1.9-1.3s1.8,0.6,1.8,1.5v3.1h-0.9v-0.6h-0.1c-0.3,0.5-0.8,0.7-1.4,0.7 C-342.7-1073.8-343.3-1074.4-343.4-1075.1C-343.4-1075-343.4-1075.1-343.4-1075.1z M-340.5-1075.5v-0.4l-1.1,0.1 c-0.6,0-0.9,0.3-0.9,0.7s0.4,0.6,0.8,0.6C-341.1-1074.4-340.6-1074.9-340.5-1075.5L-340.5-1075.5z"></path> <path id="Path_6008" class="st1" d="M-338.4-1076.1c0-1.4,0.7-2.3,1.9-2.3c0.6,0,1.1,0.3,1.4,0.8h0.1v-2.5h0.9v6.3h-0.9v-0.7 h-0.1c-0.3,0.5-0.8,0.8-1.4,0.8C-337.7-1073.8-338.4-1074.7-338.4-1076.1z M-337.5-1076.1c0,1,0.5,1.5,1.2,1.5s1.2-0.6,1.2-1.5 c0-1-0.5-1.5-1.2-1.5S-337.5-1077-337.5-1076.1z"></path> <path id="Path_6009" class="st1" d="M-330.5-1076.1c-0.1-1.2,0.8-2.2,1.9-2.3c1.2-0.1,2.2,0.8,2.3,1.9c0,0.1,0,0.3,0,0.4 c0.1,1.2-0.7,2.2-1.9,2.3c-1.2,0.1-2.2-0.7-2.3-1.9C-330.5-1075.8-330.5-1076-330.5-1076.1z M-327.2-1076.1c0-1-0.4-1.6-1.2-1.6 c-0.8,0-1.2,0.6-1.2,1.6s0.4,1.6,1.2,1.6S-327.2-1075.1-327.2-1076.1z"></path> <path id="Path_6010" class="st1" d="M-325-1078.4h0.9v0.7h0.1c0.2-0.5,0.8-0.9,1.4-0.8c0.8-0.1,1.5,0.5,1.6,1.4 c0,0.1,0,0.2,0,0.3v2.9h-0.9v-2.7c0-0.7-0.3-1.1-1-1.1c-0.6,0-1.1,0.4-1.1,1c0,0.1,0,0.1,0,0.2v2.7h-0.9v-4.6H-325z"></path> <path id="Path_6011" class="st1" d="M-316.1-1079.5v1.1h1v0.8h-1v2.3c0,0.5,0.2,0.7,0.6,0.7c0.1,0,0.2,0,0.3,0v0.7 c-0.2,0-0.3,0-0.5,0c-1,0-1.4-0.4-1.4-1.2v-2.6h-0.7v-0.8h0.7v-1.2h1V-1079.5z"></path> <path id="Path_6012" class="st1" d="M-313.9-1080.1h0.9v2.5h0.1c0.2-0.5,0.8-0.9,1.4-0.8c0.8,0,1.5,0.6,1.6,1.4 c0,0.1,0,0.2,0,0.3v2.9h-0.9v-2.7c0-0.7-0.3-1.1-1-1.1c-0.6,0-1.1,0.4-1.1,1c0,0.1,0,0.1,0,0.2v2.7h-0.9v-6.4H-313.9z"></path> <path id="Path_6013" class="st1" d="M-304.8-1075.1c-0.3,0.9-1.1,1.4-2,1.3c-1.1,0-2.1-0.9-2.1-2c0-0.1,0-0.2,0-0.3 c-0.2-1.1,0.7-2.2,1.8-2.4c0.1,0,0.2,0,0.3,0c1.3,0,2,0.9,2,2.3v0.3h-3.2v0.1c-0.1,0.7,0.4,1.2,1.1,1.3h0.1 c0.4,0.1,0.9-0.2,1.1-0.5L-304.8-1075.1z M-307.9-1076.5h2.3c0-0.6-0.4-1.1-1-1.2h-0.1C-307.4-1077.7-307.9-1077.2-307.9-1076.5 L-307.9-1076.5z"></path> </g> </g> </g> <g id="Group_9592" transform="translate(512 1028)"> <g id="Group_9590" transform="translate(0 0)"> <path id="Rectangle_9680" class="st0" d="M-504.5-1026.4h121.2c2.5,0,4.5,2,4.5,4.5v30.5c0,2.5-2,4.5-4.5,4.5h-121.2 c-2.5,0-4.5-2-4.5-4.5v-30.5C-509-1024.4-507-1026.4-504.5-1026.4z"></path> <g id="Group_9587" transform="translate(44.267 8.047)"> <path id="Path_6015" class="st2" d="M-507.7-1024c0,0.7-0.2,1.4-0.7,1.9c-0.6,0.6-1.3,0.9-2.1,0.9c-1.6,0-3-1.3-3-2.9 c0,0,0,0,0-0.1c0-1.6,1.3-3,2.9-3c0,0,0,0,0.1,0c0.4,0,0.8,0.1,1.2,0.2c0.3,0.1,0.7,0.4,0.9,0.6l-0.5,0.5c-0.4-0.5-1-0.7-1.6-0.7 c-1.2,0-2.2,1-2.2,2.2v0.1c0,1.3,1,2.3,2.2,2.3c0.6,0,1.2-0.2,1.6-0.6c0.3-0.3,0.5-0.7,0.5-1.2h-2.1v-0.7h2.8 C-507.7-1024.3-507.7-1024.2-507.7-1024z"></path> <path id="Path_6016" class="st2" d="M-503.3-1026.4h-2.6v1.8h2.4v0.7h-2.4v1.8h2.6v0.7h-3.4v-5.8h3.4V-1026.4z"></path> <path id="Path_6017" class="st2" d="M-500.2-1021.4h-0.7v-5.1h-1.6v-0.7h4v0.7h-1.6L-500.2-1021.4L-500.2-1021.4z"></path> <path id="Path_6018" class="st2" d="M-495.7-1021.4v-5.8h0.7v5.8L-495.7-1021.4L-495.7-1021.4z"></path> <path id="Path_6019" class="st2" d="M-491.7-1021.4h-0.7v-5.1h-1.6v-0.7h4v0.7h-1.6L-491.7-1021.4L-491.7-1021.4z"></path> <path id="Path_6020" class="st2" d="M-482.5-1022.1c-1.2,1.2-3.1,1.2-4.2,0s-1.1-3.1,0-4.3c1.2-1.2,3.1-1.2,4.2,0 C-481.4-1025.2-481.4-1023.3-482.5-1022.1L-482.5-1022.1z M-486.2-1022.6c0.9,0.9,2.3,0.9,3.1,0c0.9-0.9,0.9-2.4,0-3.3 s-2.3-0.9-3.1,0C-487.1-1025-487.1-1023.5-486.2-1022.6z"></path> <path id="Path_6021" class="st2" d="M-480.7-1021.4v-5.8h0.9l2.8,4.5l0,0v-1.1v-3.4h0.7v5.8h-0.8l-2.9-4.7l0,0v1.1v3.6 L-480.7-1021.4L-480.7-1021.4z"></path> </g> <path id="Path_6022" class="st1" d="M-443.5-1004.9c-2.3,0-4.1,1.8-4.1,4.1s1.8,4.1,4.1,4.1c2.3,0,4.1-1.8,4.1-4.1 c0-2.2-1.7-4.1-4-4.1H-443.5z M-443.5-998.4c-1.4,0.1-2.6-0.9-2.7-2.3c-0.1-1.4,0.9-2.6,2.3-2.7c1.4-0.1,2.6,0.9,2.7,2.3 c0,0.1,0,0.1,0,0.2C-441.2-999.5-442.2-998.4-443.5-998.4C-443.5-998.3-443.5-998.3-443.5-998.4L-443.5-998.4z M-452.5-1004.9 c-2.3,0-4.1,1.8-4.1,4.1s1.8,4.1,4.1,4.1c2.3,0,4.1-1.8,4.1-4.1c0-2.2-1.7-4.1-4-4.1C-452.4-1004.9-452.4-1004.9-452.5-1004.9 L-452.5-1004.9z M-452.5-998.4c-1.4,0.1-2.6-0.9-2.7-2.3c-0.1-1.4,0.9-2.6,2.3-2.7c1.4-0.1,2.6,0.9,2.7,2.3c0,0.1,0,0.1,0,0.2 C-450.1-999.5-451.1-998.4-452.5-998.4C-452.4-998.3-452.5-998.3-452.5-998.4L-452.5-998.4z M-463.1-1003.7v1.7h4.1 c-0.1,0.8-0.4,1.6-0.9,2.2c-0.8,0.9-2,1.3-3.2,1.3c-2.5,0-4.6-2.1-4.6-4.6s2.1-4.6,4.6-4.6c1.2,0,2.3,0.4,3.1,1.2l1.2-1.2 c-1.2-1.1-2.7-1.8-4.3-1.7c-3.5-0.1-6.4,2.7-6.5,6.2s2.7,6.4,6.2,6.5c0.1,0,0.1,0,0.2,0c1.7,0.1,3.3-0.6,4.4-1.8 c1-1.1,1.6-2.6,1.5-4.1c0-0.4,0-0.7-0.1-1.1L-463.1-1003.7z M-419.6-1002.3c-0.5-1.5-1.9-2.6-3.5-2.6c-2.1,0-3.9,1.8-3.9,3.9 c0,0.1,0,0.1,0,0.2c0,2.2,1.7,4,3.9,4.1h0.1c1.4,0,2.6-0.7,3.4-1.8l-1.4-0.9c-0.4,0.7-1.2,1.1-2,1.1c-0.9,0-1.6-0.5-2-1.2l5.5-2.3 L-419.6-1002.3z M-425.2-1001c-0.1-1.2,0.9-2.3,2.1-2.4l0,0c0.6,0,1.2,0.3,1.5,0.9L-425.2-1001z M-429.6-997h1.8v-12h-1.8V-997z M-432.6-1004L-432.6-1004c-0.6-0.6-1.4-0.9-2.2-0.9c-2.3,0.1-4,2-3.9,4.3c0.1,2.1,1.8,3.8,3.9,3.9c0.8,0,1.6-0.3,2.2-0.9h0.1v0.6 c0,1.6-0.8,2.4-2.2,2.4c-0.9,0-1.7-0.6-2.1-1.5l-1.6,0.7c0.6,1.5,2,2.4,3.6,2.4c2.1,0,3.9-1.2,3.9-4.3v-7.3h-1.7L-432.6-1004z M-434.6-998.3c-1.4-0.1-2.4-1.3-2.3-2.7c0.1-1.2,1.1-2.2,2.3-2.3c1.3,0.1,2.2,1.1,2.2,2.4v0.1 C-432.3-999.6-433.3-998.5-434.6-998.3C-434.6-998.4-434.6-998.3-434.6-998.3z M-411.2-1009h-4.3v12h1.8v-4.6h2.5 c2.1,0.1,3.8-1.5,3.9-3.5c0.1-2.1-1.5-3.8-3.5-3.9C-410.9-1009-411.1-1009-411.2-1009L-411.2-1009z M-411.1-1003.2h-2.5v-4.1h2.5 c1.1,0,2.1,0.9,2.1,2S-409.9-1003.2-411.1-1003.2L-411.1-1003.2L-411.1-1003.2z M-400.1-1004.9c-1.3-0.1-2.6,0.6-3.2,1.8l1.6,0.7 c0.3-0.6,1-0.9,1.6-0.9c0.9-0.1,1.8,0.6,1.9,1.5v0.1c-0.6-0.3-1.2-0.5-1.9-0.5c-1.7,0-3.5,0.9-3.5,2.7c0.1,1.5,1.4,2.7,2.9,2.6 h0.1c0.9,0.1,1.8-0.4,2.3-1.2h0.1v0.9h1.7v-4.6C-396.4-1003.7-398-1004.9-400.1-1004.9L-400.1-1004.9z M-400.3-998.4 c-0.6,0-1.4-0.3-1.4-1c0-0.9,1-1.3,1.9-1.3c0.6,0,1.1,0.1,1.6,0.4C-398.3-999.2-399.2-998.4-400.3-998.4L-400.3-998.4z M-390.1-1004.7l-2.1,5.2h-0.1l-2.1-5.2h-1.9l3.2,7.3l-1.8,4h1.9l4.9-11.3H-390.1z M-406.3-997h1.8v-12h-1.8V-997z"></path> <g id="Group_9589" transform="translate(10.676 8.341)"> <linearGradient id="Path_6023_1_" gradientUnits="userSpaceOnUse" x1="-1343.6841" y1="-25.4267" x2="-1344.849" y2="-26.0271" gradientTransform="matrix(13.8396 0 0 26.834 18125.9648 -293.1554)"> <stop offset="0" style="stop-color:#3593D1"></stop> <stop offset="7.000001e-03" style="stop-color:#3594D2"></stop> <stop offset="0.26" style="stop-color:#2EB2E8"></stop> <stop offset="0.512" style="stop-color:#40BEE7"></stop> <stop offset="0.76" style="stop-color:#53C1DF"></stop> <stop offset="1" style="stop-color:#58C2DD"></stop> </linearGradient> <path id="Path_6023" class="st3" d="M-509.7-1026.9c-0.3,0.4-0.5,0.9-0.4,1.3v21.3c0,0.5,0.1,1,0.4,1.3l0.1,0.1l11.9-11.9v-0.3 L-509.7-1026.9L-509.7-1026.9z"></path> <linearGradient id="Path_6024_1_" gradientUnits="userSpaceOnUse" x1="-1339.1545" y1="24.7582" x2="-1341.2914" y2="24.7582" gradientTransform="matrix(10.885 0 0 9.158 14089.5322 -1241.686)"> <stop offset="0" style="stop-color:#F4D823"></stop> <stop offset="0.409" style="stop-color:#F5B817"></stop> <stop offset="0.775" style="stop-color:#F4A116"></stop> <stop offset="1" style="stop-color:#F39718"></stop> </linearGradient> <path id="Path_6024" class="st4" d="M-493.7-1010.8l-4-4v-0.3l4-4l0.1,0.1l4.7,2.7c1.3,0.8,1.3,2,0,2.8L-493.7-1010.8 L-493.7-1010.8z"></path> <linearGradient id="Path_6025_1_" gradientUnits="userSpaceOnUse" x1="-1347.0424" y1="4.455" x2="-1348.2656" y2="2.8665" gradientTransform="matrix(17.865 0 0 13.7784 23644.6191 -986.8508)"> <stop offset="0" style="stop-color:#E83F45"></stop> <stop offset="1" style="stop-color:#B7175D"></stop> </linearGradient> <path id="Path_6025" class="st5" d="M-493.6-1010.9l-4.1-4.1l-12,12c0.6,0.5,1.4,0.5,2,0.1L-493.6-1010.9"></path> <linearGradient id="Path_6026_1_" gradientUnits="userSpaceOnUse" x1="-1357.564" y1="6.1297" x2="-1357.0175" y2="5.4206" gradientTransform="matrix(17.865 0 0 13.7784 23644.6191 -1000.631)"> <stop offset="0" style="stop-color:#34996D"></stop> <stop offset="6.800000e-02" style="stop-color:#309F6D"></stop> <stop offset="0.476" style="stop-color:#45B46E"></stop> <stop offset="0.801" style="stop-color:#5AB86C"></stop> <stop offset="1" style="stop-color:#61B96B"></stop> </linearGradient> <path id="Path_6026" class="st6" d="M-493.6-1019l-14-8c-0.6-0.5-1.4-0.4-2,0.1l12,12L-493.6-1019z"></path> <g id="Group_9588" transform="translate(0 18.189)"> <path id="Path_6027" class="st7" d="M-493.7-1029.2l-13.9,7.9c-0.6,0.4-1.4,0.4-1.9,0l0,0l-0.1,0.1l0,0l0.1,0.1l0,0 c0.6,0.4,1.4,0.4,1.9,0L-493.7-1029.2L-493.7-1029.2z"></path> <path id="Path_6028" class="st8" d="M-509.7-1021.3c-0.3-0.4-0.5-0.9-0.4-1.3v0.1C-510.1-1022-510-1021.5-509.7-1021.3 L-509.7-1021.3L-509.7-1021.3z"></path> </g> <path id="Path_6029" class="st8" d="M-488.9-1013.7l-4.8,2.7l0.1,0.1L-488.9-1013.7c0.6-0.1,0.9-0.7,1-1.3l0,0 C-488-1014.4-488.4-1013.9-488.9-1013.7z"></path> <path id="Path_6030" class="st9" d="M-507.7-1026.8l18.7,10.6c0.5,0.2,0.9,0.7,1,1.2l0,0c-0.1-0.6-0.4-1.1-1-1.4l-18.7-10.6 c-1.3-0.8-2.4-0.1-2.4,1.4v0.1C-510.1-1027-509-1027.6-507.7-1026.8z"></path> </g> </g> </g> </svg>
