<?xml version="1.0" encoding="UTF-8"?>
<svg id="_圖層_1" data-name="圖層 1" xmlns="http://www.w3.org/2000/svg" version="1.1" viewBox="0 0 512 512">
  <defs>
    <style>
      .cls-1 {
        fill: #fff;
      }

      .cls-1, .cls-2 {
        fill-rule: evenodd;
        stroke-width: 0px;
      }

      .cls-2 {
        fill: #000;
      }
    </style>
  </defs>
  <g id="WsfDFO">
    <g>
      <path class="cls-2" d="M268.3,494.2c-28.3-1.3-56.7-1.8-84.1-9.2-46.7-12.6-83.8-38.5-107.8-81.5-16.6-29.8-32.8-59.8-40.5-93.4-4.5-19.4-8-39.1-10.6-58.8-2.2-17.4-3.5-35.1-3.3-52.6.8-70.1,45.1-141.5,114.1-169.1,15-6,30.8-8,46.7-8.7,34.2-1.4,67.2,6.6,100.3,13.9,40.3,9,77,25.8,110.5,49.6,26.9,19.2,51.4,40.7,67.6,70.4,10.9,20,16.6,41.7,22.1,63.5,5.7,22.6,6.5,45.7,5.3,68.8-.5,9.1-3.1,18-4.1,27-1.1,9.8-.8,19.8-2,29.5-5.4,44.2-26.5,79.7-60.8,107.8-24.8,20.3-53.3,33.1-85,37.2-22.7,3-45.6,3.8-68.4,5.6ZM281.8,274.6c1.1,11.8,2.2,24.4,3.5,37,2.3,21.2,5.1,42.2,13.5,62.1,6.5,15.4,21.3,22.4,35.7,16.8,14.1-5.4,20.6-20.3,15.5-35.9-2-6.3-4.4-12.5-5.7-18.9-5.2-26-7.5-52.2-7.7-78.7-.1-13.5.8-27.1,2-40.6,1.2-13.8,5-27,11.1-39.5,3.5-7.1,5.6-14.3,3.9-22.3-2.4-10.9-11.4-19.5-22.1-21.1-12.2-1.8-22.9,3.6-28.8,14.8-10,19.2-16,39.7-18.6,61.2-.9,7-1.6,14-2.4,21.8-11-8.4-21.9-7.2-33.2-3.4-10.6,3.6-21.3,6.6-32,9.8-1.7.5-3.4.8-5.8,1.3,0-2.8-.1-4.8,0-6.8,1.1-18.6,2.8-37.3,3.3-56,.5-16.3-10.8-28.3-26.1-29.1-14.6-.7-26.6,10-28.2,25.9-1.2,11.8-1.6,23.8-2.5,35.7-3.1,43.1-3.6,86.1,4.8,128.7,2.5,12.8,5.7,25.5,13.8,36.1,8.8,11.5,23.8,14.4,35.9,7.2,11.8-7,15.8-21.2,10.9-34.6-3.6-9.7-6.5-19.8-8.4-29.9-3.5-18.5-3.2-18.8,14.6-24.8,17.6-5.8,35.2-11.1,53-16.8Z"/>
      <path class="cls-1" d="M281.8,274.6c-17.8,5.7-35.4,11-52.9,16.9-17.8,6-18.1,6.3-14.6,24.8,1.9,10.2,4.8,20.3,8.4,29.9,4.9,13.4,1,27.5-10.9,34.6-12.1,7.2-27,4.4-35.9-7.2-8.1-10.6-11.3-23.3-13.8-36.1-8.4-42.7-7.9-85.7-4.8-128.7.9-11.9,1.3-23.8,2.5-35.7,1.6-15.9,13.6-26.5,28.2-25.9,15.3.7,26.6,12.7,26.1,29.1-.6,18.7-2.2,37.3-3.3,56-.1,2,0,4,0,6.8,2.4-.5,4.1-.8,5.8-1.3,10.7-3.2,21.5-6.2,32-9.8,11.3-3.8,22.2-5,33.2,3.4.8-7.9,1.5-14.9,2.4-21.8,2.7-21.5,8.6-42,18.6-61.2,5.9-11.2,16.6-16.6,28.8-14.8,10.7,1.6,19.7,10.2,22.1,21.1,1.7,8-.4,15.3-3.9,22.3-6.1,12.5-9.9,25.7-11.1,39.5-1.2,13.5-2.1,27.1-2,40.6.2,26.4,2.5,52.7,7.7,78.7,1.3,6.4,3.7,12.6,5.7,18.9,5,15.6-1.4,30.5-15.5,35.9-14.4,5.5-29.2-1.5-35.7-16.8-8.4-19.9-11.2-40.9-13.5-62.1-1.4-12.7-2.5-25.3-3.6-37.1Z"/>
    </g>
  </g>
</svg>